<?xml version="1.0" standalone="no"?>
<!DOCTYPE svg PUBLIC "-//W3C//DTD SVG 20010904//EN"
 "http://www.w3.org/TR/2001/REC-SVG-20010904/DTD/svg10.dtd">
<svg version="1.0" xmlns="http://www.w3.org/2000/svg"
 width="512.000000pt" height="512.000000pt" viewBox="0 0 512.000000 512.000000"
 preserveAspectRatio="xMidYMid meet">
<metadata>
Created by potrace 1.11, written by Peter Selinger 2001-2013
</metadata>
<g transform="translate(0.000000,512.000000) scale(0.100000,-0.100000)"
fill="#000000" stroke="none">
<path d="M1920 5005 l0 -115 -440 0 -440 0 0 -2250 0 -2250 160 0 160 0 0
2090 0 2090 280 0 280 0 0 -2285 0 -2285 23 5 c12 2 488 88 1057 190 569 102
1045 187 1058 190 l22 5 0 2169 0 2170 -52 10 c-29 6 -505 92 -1058 191 -553
99 -1015 183 -1027 185 -23 5 -23 4 -23 -110z m444 -2290 c122 -64 108 -283
-21 -326 -27 -9 -40 -7 -70 8 -53 26 -83 82 -83 158 0 72 22 120 70 153 39 26
64 28 104 7z"/>
</g>
</svg>
